<svg xmlns="http://www.w3.org/2000/svg" viewBox="0 0 1200 680" role="img" aria-labelledby="title desc">
  <title id="title">Landing Pages Templates</title>
  <desc id="desc">Visual cover for landing-pages-templates project.</desc>
  <defs>
    <linearGradient id="bg4" x1="0" y1="0" x2="1" y2="1">
      <stop offset="0%" stop-color="#0b1124" />
      <stop offset="55%" stop-color="#18315d" />
      <stop offset="100%" stop-color="#1d2848" />
    </linearGradient>
    <linearGradient id="accent4" x1="0" y1="0" x2="1" y2="1">
      <stop offset="0%" stop-color="#54d9ff" />
      <stop offset="50%" stop-color="#5b7dff" />
      <stop offset="100%" stop-color="#8f6cff" />
    </linearGradient>
  </defs>
  <rect width="1200" height="680" fill="url(#bg4)" rx="30" />
  <rect x="74" y="74" width="1052" height="532" rx="24" fill="rgba(7,14,31,0.82)" stroke="rgba(173,208,255,0.22)" />
  <rect x="108" y="108" width="984" height="84" rx="16" fill="rgba(9,18,43,0.88)" stroke="rgba(173,208,255,0.22)" />
  <rect x="132" y="132" width="256" height="36" rx="10" fill="url(#accent4)" />
  <rect x="408" y="140" width="110" height="22" rx="11" fill="rgba(84,217,255,0.18)" stroke="rgba(84,217,255,0.45)" />
  <rect x="532" y="140" width="110" height="22" rx="11" fill="rgba(91,125,255,0.18)" stroke="rgba(91,125,255,0.45)" />
  <rect x="656" y="140" width="110" height="22" rx="11" fill="rgba(143,108,255,0.18)" stroke="rgba(143,108,255,0.45)" />
  <rect x="108" y="214" width="308" height="358" rx="16" fill="rgba(9,19,46,0.86)" stroke="rgba(173,208,255,0.22)" />
  <rect x="440" y="214" width="308" height="358" rx="16" fill="rgba(9,19,46,0.86)" stroke="rgba(173,208,255,0.22)" />
  <rect x="772" y="214" width="320" height="358" rx="16" fill="rgba(9,19,46,0.86)" stroke="rgba(173,208,255,0.22)" />
  <rect x="136" y="242" width="252" height="18" rx="9" fill="#eaf4ff" opacity="0.92" />
  <rect x="468" y="242" width="252" height="18" rx="9" fill="#eaf4ff" opacity="0.92" />
  <rect x="800" y="242" width="264" height="18" rx="9" fill="#eaf4ff" opacity="0.92" />
  <rect x="136" y="276" width="180" height="12" rx="6" fill="#c5dbff" opacity="0.8" />
  <rect x="468" y="276" width="180" height="12" rx="6" fill="#c5dbff" opacity="0.8" />
  <rect x="800" y="276" width="180" height="12" rx="6" fill="#c5dbff" opacity="0.8" />
  <rect x="136" y="318" width="104" height="34" rx="10" fill="url(#accent4)" />
  <rect x="468" y="318" width="104" height="34" rx="10" fill="url(#accent4)" />
  <rect x="800" y="318" width="104" height="34" rx="10" fill="url(#accent4)" />
  <text x="108" y="628" fill="#c6d8fb" font-family="'IBM Plex Mono', 'Trebuchet MS', monospace" font-size="18">Builder de landing pages com wizard e temas customizaveis</text>
</svg>
