<svg width="960" height="720" viewBox="0 0 960 720" fill="none" xmlns="http://www.w3.org/2000/svg">
  <rect width="960" height="720" rx="40" fill="#111827"/>
  <rect x="32" y="32" width="896" height="656" rx="32" fill="url(#bg)"/>
  <rect x="82" y="92" width="160" height="30" rx="15" fill="#B9FBC0" fill-opacity="0.82"/>
  <rect x="82" y="150" width="796" height="112" rx="28" fill="#F8FAFC" fill-opacity="0.09"/>
  <rect x="114" y="182" width="126" height="22" rx="11" fill="#D9F99D"/>
  <rect x="114" y="214" width="170" height="18" rx="9" fill="#F8FAFC" fill-opacity="0.5"/>
  <rect x="336" y="182" width="126" height="22" rx="11" fill="#67E8F9"/>
  <rect x="336" y="214" width="170" height="18" rx="9" fill="#F8FAFC" fill-opacity="0.5"/>
  <rect x="558" y="182" width="126" height="22" rx="11" fill="#C4B5FD"/>
  <rect x="558" y="214" width="170" height="18" rx="9" fill="#F8FAFC" fill-opacity="0.5"/>
  <rect x="82" y="302" width="444" height="286" rx="28" fill="#F8FAFC" fill-opacity="0.08"/>
  <rect x="560" y="302" width="318" height="286" rx="28" fill="#F8FAFC" fill-opacity="0.08"/>
  <path d="M122 520L202 446L276 468L362 374L448 406" stroke="#67E8F9" stroke-width="18" stroke-linecap="round" stroke-linejoin="round"/>
  <rect x="604" y="352" width="58" height="182" rx="18" fill="#A3E635"/>
  <rect x="688" y="412" width="58" height="122" rx="18" fill="#38BDF8"/>
  <rect x="772" y="380" width="58" height="154" rx="18" fill="#C084FC"/>
  <defs>
    <linearGradient id="bg" x1="116" y1="70" x2="850" y2="650" gradientUnits="userSpaceOnUse">
      <stop stop-color="#0F2A43"/>
      <stop offset="1" stop-color="#09111D"/>
    </linearGradient>
  </defs>
</svg>
