<svg xmlns="http://www.w3.org/2000/svg" viewBox="0 0 1200 680" role="img" aria-labelledby="title desc">
  <title id="title">New Portfolio</title>
  <desc id="desc">Visual cover for portfolio website project.</desc>
  <defs>
    <linearGradient id="bg2" x1="0" y1="0" x2="1" y2="1">
      <stop offset="0%" stop-color="#081122" />
      <stop offset="55%" stop-color="#0f2b4d" />
      <stop offset="100%" stop-color="#132340" />
    </linearGradient>
    <linearGradient id="accent2" x1="0" y1="0" x2="1" y2="1">
      <stop offset="0%" stop-color="#7ee7ff" />
      <stop offset="50%" stop-color="#58a6ff" />
      <stop offset="100%" stop-color="#7c69ff" />
    </linearGradient>
  </defs>
  <rect width="1200" height="680" fill="url(#bg2)" rx="30" />
  <rect x="74" y="74" width="1052" height="532" rx="24" fill="rgba(7,14,29,0.78)" stroke="rgba(173,208,255,0.24)" />
  <rect x="104" y="106" width="230" height="468" rx="16" fill="rgba(8,18,39,0.92)" stroke="rgba(173,208,255,0.22)" />
  <rect x="124" y="136" width="190" height="36" rx="10" fill="url(#accent2)" />
  <rect x="124" y="192" width="130" height="12" rx="6" fill="#dbe8ff" opacity="0.88" />
  <rect x="124" y="216" width="168" height="10" rx="5" fill="#bdd2ff" opacity="0.74" />
  <rect x="124" y="256" width="190" height="52" rx="12" fill="rgba(126,231,255,0.14)" stroke="rgba(126,231,255,0.38)" />
  <rect x="124" y="324" width="190" height="52" rx="12" fill="rgba(104,126,255,0.14)" stroke="rgba(104,126,255,0.38)" />
  <rect x="124" y="392" width="190" height="52" rx="12" fill="rgba(124,105,255,0.14)" stroke="rgba(124,105,255,0.38)" />
  <rect x="364" y="106" width="732" height="232" rx="16" fill="rgba(9,19,44,0.84)" stroke="rgba(173,208,255,0.22)" />
  <rect x="396" y="144" width="314" height="22" rx="11" fill="#edf5ff" opacity="0.95" />
  <rect x="396" y="180" width="468" height="12" rx="6" fill="#c7dbff" opacity="0.8" />
  <rect x="396" y="212" width="180" height="44" rx="12" fill="url(#accent2)" />
  <rect x="592" y="212" width="180" height="44" rx="12" fill="none" stroke="rgba(173,208,255,0.4)" />
  <rect x="364" y="356" width="352" height="218" rx="16" fill="rgba(10,21,47,0.84)" stroke="rgba(173,208,255,0.22)" />
  <rect x="744" y="356" width="352" height="218" rx="16" fill="rgba(10,21,47,0.84)" stroke="rgba(173,208,255,0.22)" />
  <text x="124" y="558" fill="#c6d8fb" font-family="'IBM Plex Mono', 'Trebuchet MS', monospace" font-size="18">Portfolio com rota dedicada para docs da Auralith UI</text>
</svg>
