<svg xmlns="http://www.w3.org/2000/svg" viewBox="0 0 1200 680" role="img" aria-labelledby="title desc">
  <title id="title">Auralith UI Library</title>
  <desc id="desc">Visual cover for Auralith UI component library project.</desc>
  <defs>
    <linearGradient id="bg" x1="0" y1="0" x2="1" y2="1">
      <stop offset="0%" stop-color="#0a1026" />
      <stop offset="55%" stop-color="#10244a" />
      <stop offset="100%" stop-color="#1a1f43" />
    </linearGradient>
    <linearGradient id="accent" x1="0" y1="0" x2="1" y2="1">
      <stop offset="0%" stop-color="#6fe0ff" />
      <stop offset="50%" stop-color="#687eff" />
      <stop offset="100%" stop-color="#8b66ff" />
    </linearGradient>
  </defs>
  <rect width="1200" height="680" fill="url(#bg)" rx="30" />
  <rect x="82" y="82" width="1036" height="516" rx="24" fill="rgba(7,14,31,0.78)" stroke="rgba(173,208,255,0.24)" />
  <rect x="128" y="140" width="230" height="42" rx="10" fill="url(#accent)" opacity="0.95" />
  <rect x="128" y="210" width="420" height="20" rx="10" fill="#dbe8ff" opacity="0.94" />
  <rect x="128" y="242" width="520" height="14" rx="7" fill="#bdd2ff" opacity="0.8" />
  <rect x="128" y="280" width="160" height="44" rx="12" fill="url(#accent)" />
  <rect x="302" y="280" width="160" height="44" rx="12" fill="none" stroke="rgba(173,208,255,0.42)" />
  <rect x="128" y="356" width="210" height="96" rx="16" fill="rgba(111,224,255,0.12)" stroke="rgba(111,224,255,0.42)" />
  <rect x="354" y="356" width="210" height="96" rx="16" fill="rgba(104,126,255,0.12)" stroke="rgba(104,126,255,0.42)" />
  <rect x="580" y="356" width="210" height="96" rx="16" fill="rgba(139,102,255,0.12)" stroke="rgba(139,102,255,0.42)" />
  <rect x="720" y="140" width="352" height="312" rx="16" fill="rgba(9,18,43,0.86)" stroke="rgba(173,208,255,0.28)" />
  <circle cx="770" cy="180" r="8" fill="#6fe0ff" />
  <circle cx="800" cy="180" r="8" fill="#687eff" />
  <circle cx="830" cy="180" r="8" fill="#8b66ff" />
  <rect x="748" y="224" width="292" height="14" rx="7" fill="#dbe8ff" opacity="0.88" />
  <rect x="748" y="252" width="216" height="10" rx="5" fill="#bdd2ff" opacity="0.75" />
  <rect x="748" y="292" width="132" height="34" rx="10" fill="url(#accent)" />
  <text x="128" y="120" fill="#f5f9ff" font-family="'Space Grotesk', 'Trebuchet MS', sans-serif" font-size="28" font-weight="700">Auralith UI</text>
  <text x="128" y="504" fill="#b9ccf5" font-family="'IBM Plex Mono', 'Trebuchet MS', monospace" font-size="18">Design system, componentes React e docs de uso</text>
</svg>
